/* XPM */
static char * C:\Users\C00KIE\Desktop\Convert Wallet Graphics\Eclipse Convert\XPM\bitcoin16_xpm[] = {
"16 16 48 1",
" 	c None",
".	c #396275",
"+	c #255367",
"@	c #3A6375",
"#	c #6B8B99",
"$	c #517686",
"%	c #60818F",
"&	c #5F808F",
"*	c #708E9C",
"=	c #285669",
"-	c #5E808E",
";	c #376173",
">	c #466D7F",
",	c #527786",
"'	c #577A8A",
")	c #678696",
"!	c #396376",
"~	c #366073",
"{	c #5A7C8C",
"]	c #366173",
"^	c #376174",
"/	c #5D7F8D",
"(	c #3B6476",
"_	c #5A7B8B",
":	c #537786",
"<	c #537887",
"[	c #618191",
"}	c #567A89",
"|	c #3C6576",
"1	c #5E7F8E",
"2	c #638391",
"3	c #557988",
"4	c #618290",
"5	c #5C7F8D",
"6	c #406879",
"7	c #436B7C",
"8	c #618291",
"9	c #3B6576",
"0	c #4A6F81",
"a	c #4B6F82",
"b	c #496F80",
"c	c #5F8191",
"d	c #688895",
"e	c #587B8B",
"f	c #406878",
"g	c #628291",
"h	c #5F818F",
"i	c #6C8B98",
"                ",
"     .++++@     ",
"    ++++++++    ",
"   ++++++++++   ",
"  +++#$%&&*=++  ",
" .+++-;>,')=++! ",
" ++++-~{]]^++++ ",
" ++++/(_:<[++++ ",
" ++++}|-123++++ ",
" ++++4;56.7++++ ",
" @+++890abc+++@ ",
"  +++defghi+++  ",
"   ++++++++++   ",
"    ++++++++    ",
"     !++++@     ",
"                "};
