/* XPM */
static char * C:\Users\C00KIE\Desktop\Convert Wallet Graphics\Eclipse Convert\XPM\bitcoin64_xpm[] = {
"64 64 222 2",
"  	c None",
". 	c #9BAEB9",
"+ 	c #9AAEB9",
"@ 	c #93A8B4",
"# 	c #8CA2AE",
"$ 	c #869EAB",
"% 	c #9AADB8",
"& 	c #849DA9",
"* 	c #678594",
"= 	c #4D7183",
"- 	c #3B6476",
"; 	c #29566A",
"> 	c #255367",
", 	c #3B6477",
"' 	c #4D7282",
") 	c #668695",
"! 	c #859DA9",
"~ 	c #809AA7",
"{ 	c #567989",
"] 	c #2E5A6E",
"^ 	c #56798A",
"/ 	c #819AA7",
"( 	c #9AACB8",
"_ 	c #708D9B",
": 	c #396275",
"< 	c #3A6375",
"[ 	c #718E9C",
"} 	c #99ADB8",
"| 	c #75909F",
"1 	c #355F72",
"2 	c #366072",
"3 	c #76919F",
"4 	c #8BA2AE",
"5 	c #476D7E",
"6 	c #476D7F",
"7 	c #75919F",
"8 	c #2D596D",
"9 	c #2C586B",
"0 	c #738F9D",
"a 	c #587A8B",
"b 	c #98ABB7",
"c 	c #4C7182",
"d 	c #4A7081",
"e 	c #97ACB6",
"f 	c #436B7C",
"g 	c #446B7D",
"h 	c #4B7181",
"i 	c #496F80",
"j 	c #587B8B",
"k 	c #8CA3B0",
"l 	c #72909D",
"m 	c #D3DDE1",
"n 	c #C2CFD5",
"o 	c #DBE3E6",
"p 	c #486E7F",
"q 	c #74909E",
"r 	c #718F9C",
"s 	c #88A1AC",
"t 	c #B7C7CD",
"u 	c #7792A0",
"v 	c #6F8D9A",
"w 	c #7B97A3",
"x 	c #335E70",
"y 	c #325D70",
"z 	c #305C6F",
"A 	c #4A7181",
"B 	c #456C7E",
"C 	c #466D7E",
"D 	c #335E71",
"E 	c #D0DADE",
"F 	c #5A7D8C",
"G 	c #366174",
"H 	c #3D6678",
"I 	c #889FAC",
"J 	c #396274",
"K 	c #628392",
"L 	c #5D7F8E",
"M 	c #5F808F",
"N 	c #7A94A2",
"O 	c #356072",
"P 	c #BECCD2",
"Q 	c #5F8190",
"R 	c #728E9C",
"S 	c #3E6678",
"T 	c #285669",
"U 	c #6D8A99",
"V 	c #486F7F",
"W 	c #396376",
"X 	c #839BA8",
"Y 	c #577A89",
"Z 	c #8DA3B0",
"` 	c #7F99A6",
" .	c #7C96A3",
"..	c #7C96A4",
"+.	c #7A94A3",
"@.	c #456C7D",
"#.	c #E0E7EA",
"$.	c #7A96A3",
"%.	c #829BA8",
"&.	c #436A7C",
"*.	c #628291",
"=.	c #2D596C",
"-.	c #285569",
";.	c #C9D5D9",
">.	c #366073",
",.	c #B3C3CA",
"'.	c #A2B5BE",
").	c #D8E1E4",
"!.	c #2F5B6E",
"~.	c #D4DDE1",
"{.	c #648593",
"].	c #7C97A3",
"^.	c #678695",
"/.	c #4D7283",
"(.	c #265468",
"_.	c #3C6477",
":.	c #A8BBC3",
"<.	c #C3D0D5",
"[.	c #CDD8DC",
"}.	c #A2B6BE",
"|.	c #2A576B",
"1.	c #93A8B3",
"2.	c #74919E",
"3.	c #819BA7",
"4.	c #275468",
"5.	c #9FB3BC",
"6.	c #BDCAD1",
"7.	c #C1CFD4",
"8.	c #8099A7",
"9.	c #7995A2",
"0.	c #8AA1AE",
"a.	c #265367",
"b.	c #688695",
"c.	c #638493",
"d.	c #678795",
"e.	c #265568",
"f.	c #345E70",
"g.	c #5C7D8D",
"h.	c #698796",
"i.	c #41697B",
"j.	c #A7B9C2",
"k.	c #879FAB",
"l.	c #275568",
"m.	c #275469",
"n.	c #658494",
"o.	c #315C70",
"p.	c #A5B7C0",
"q.	c #D8E0E3",
"r.	c #6C8B98",
"s.	c #708E9B",
"t.	c #829BA9",
"u.	c #7A94A1",
"v.	c #869DAA",
"w.	c #365F73",
"x.	c #4F7484",
"y.	c #7794A0",
"z.	c #B4C4CB",
"A.	c #2A576A",
"B.	c #7E9AA6",
"C.	c #BECBD1",
"D.	c #CAD5DA",
"E.	c #D3DCE0",
"F.	c #C4D1D6",
"G.	c #517686",
"H.	c #7693A0",
"I.	c #C8D4D8",
"J.	c #859FAA",
"K.	c #A8BAC2",
"L.	c #B9C8CE",
"M.	c #688895",
"N.	c #8DA5AF",
"O.	c #9EB3BB",
"P.	c #879EAA",
"Q.	c #2F5A6E",
"R.	c #5E808E",
"S.	c #668694",
"T.	c #ABBDC5",
"U.	c #5B7D8D",
"V.	c #B6C5CC",
"W.	c #6C8B99",
"X.	c #567889",
"Y.	c #618191",
"Z.	c #376174",
"`.	c #325E71",
" +	c #A5B8C0",
".+	c #577A8A",
"++	c #335D71",
"@+	c #738F9E",
"#+	c #748F9E",
"$+	c #879FAC",
"%+	c #40687B",
"&+	c #8BA1AE",
"*+	c #648393",
"=+	c #537686",
"-+	c #2B586B",
";+	c #608090",
">+	c #496F7F",
",+	c #3D6577",
"'+	c #42697A",
")+	c #376173",
"!+	c #8CA4AF",
"~+	c #40697A",
"{+	c #9FB4BC",
"]+	c #597C8B",
"^+	c #A1B5BD",
"/+	c #688896",
"(+	c #B2C3C9",
"_+	c #527787",
":+	c #BFCCD2",
"<+	c #AABCC4",
"[+	c #ADBEC6",
"}+	c #D5DEE1",
"|+	c #869FAA",
"1+	c #B6C6CC",
"2+	c #2C586C",
"3+	c #8DA4AF",
"4+	c #73909D",
"5+	c #5A7C8C",
"6+	c #98ACB7",
"7+	c #8DA2AF",
"8+	c #7692A0",
"9+	c #7893A1",
"                                                                                                                                ",
"                                                  . . . . . . . . . . . . . .                                                   ",
"                                          . . . . . . . + @ # $ $ # @ % . . . . . . .                                           ",
"                                      . . . . + & * = - ; > > > > > > ; , ' ) ! + . . . .                                       ",
"                                  . . . . ~ { ] > > > > > > > > > > > > > > > > ] ^ / . . . .                                   ",
"                              . . . ( _ : > > > > > > > > > > > > > > > > > > > > > > < [ } . . .                               ",
"                            . . . | 1 > > > > > > > > > > > > > > > > > > > > > > > > > > 2 3 . . .                             ",
"                        . . . 4 5 > > > > > > > > > > > > > > > > > > > > > > > > > > > > > > 6 # . . .                         ",
"                      . . . 7 8 > > > > > > > > > > > > > > > > > > > > > > > > > > > > > > > > 9 0 . . .                       ",
"                    . . } ^ > > > > > > > > > > > > > > > > > > > > > > > > > > > > > > > > > > > > a } . .                     ",
"                  . . b c > > > > > > > > > > > > > > > > > > > > > > > > > > > > > > > > > > > > > > d e . .                   ",
"                . . e f > > > > > > > > > > > > > > > > > > > > > > > > > > > > > > > > > > > > > > > > g b . .                 ",
"              . . } h > > > > > > > > > > > > > > > > > > > > > > > > > > > > > > > > > > > > > > > > > > i } . .               ",
"              . . ^ > > > > > > > > > > > > > > > > > > > > > > > > > > > > > > > > > > > > > > > > > > > > j . .               ",
"            . . 0 > > > > > > > > > > > > > > > > > > > > > > > > > > > > > > > > > > > > > > > > > > > > > > | . .             ",
"          . . 4 9 > > > > > > > > > > > > > > > > > > > > > > > > > > > > > > > > > > > > > > > > > > > > > > 8 k . .           ",
"          . . 5 > > > > > > > > > > > > l m n n n n n n n n n n n n n n n n n n n n n o > > > > > > > > > > > > p . .           ",
"        . . q > > > > > > > > > > > > > r s < < < < < < < < < < < < < < < < < < < < < t > > > > > > > > > > > > > u . .         ",
"        . ( 1 > > > > > > > > > > > > > v w x _ y > > z _ A g g g g g g g g g g B C D E F > > > > > > > > > > > > G } .         ",
"      . . _ > > > > > > > > > > > > > > v w H I , > > J ~ K L L L L L L L L L L M N O P Q > > > > > > > > > > > > > R . .       ",
"      . . : > > > > > > > > > > > > > > v w > I > ] J > > > > > > ; S > > > > > T U > V T > > > > > > > > > > > > > W . .       ",
"    . . ~ > > > > > > > > > > > > > > > v w > I > U X > > > > > > Y Z `  . . . ...+.@.#.$.> > > > > > > > > > > > > > %.. .     ",
"    . . { > > > > > > > > > > > > > > > v w > I > &.*.> > > > > > =.d > > > > > > > -.;.>.> > > > > > > > > > > > > > Y . .     ",
"    . + ] > > > > > > > > > > > > > > > v w > I > J ^ > ,.'.'.'.'.'.'.'.'.'.'.'.'.'.'.).> > > > > > > > > > > > > > > !.% .     ",
"    . & > > > > > > > > > > > > > > > > v w > I > J ^ > ~.{.{.{.{.{.{.{.{.{.{.{.{.{.{.].> > > > > > > > > > > > > > > > $ .     ",
"  . . * > > > > > > > > > > > > > > > > v w > I > J ^ > ;.> > > > > > > > > > > > > > > > > > > > > > > > > > > > > > > ^.. .   ",
"  . . ' > > > > > > > > > > > > > > > > v w > I > J ^ > ;.> > > > > > > > > > > > > > > > > > > > > > > > > > > > > > > /.. .   ",
"  . . < > > > > > > > > > > > > > > > > v w > I > J ^ > ;.-.-.-.-.-.-.-.-.-.-.-.-.-.(.> > > > > > > > > > > > > > > > > _.. .   ",
"  . + ; > > > > > > > > > > > > > > > > v w > I > J ^ > :.<.<.<.<.<.<.<.<.<.<.<.<.[.}.> > > > > > > > > > > > > > > > > |.% .   ",
"  . 1.> > > > > > > > > > > > > > > > > 2.3.> I > J ^ > > > > > ] > > > > > > =.4.d 5.> > > > > > > > > > > > > > > > > > 1..   ",
"  . k > > > > > > > > > > > > > > > > > 6.7.> I > J 8.[ [ [ [ 9.0.i > > > > a.X b.d 5.> > > > > > > > > > > > > > > > > > Z .   ",
"  . $ > > > > > > > > > > > > > > > > > c.d.> I > e.f.z z z z O g.] > > > > > h.i./.j.> > > > > > > > > > > > > > > > > > k..   ",
"  . $ > > > > > > > > > > > > > > > > > > > > I > (.l.m.m.m.m.m.m.m.m.m.m.m.m.n.o.p.q.4.> > > > > > > > > > > > > > > > > k..   ",
"  . k > > > > > > > > > > > > > > > > > r.s.> I > W t.u.u.u.u.u.u.u.u.u.u.u.u.v.w.x.y.> > > > > > > > > > > > > > > > > > Z .   ",
"  . 1.> > > > > > > > > > > > > > > > > z.t > I > W a > > > > > > > > > > > > > > ; >.> > > > > > > > > > > > > > > > > > 1..   ",
"  . + A.> > > > > > > > > > > > > > > > r B.> I > W a > C.P P P P P P P P P P P P D.E.4.> > > > > > > > > > > > > > > > |.% .   ",
"  . . < > > > > > > > > > > > > > > > > v w > I > W a > F.=.=.=.=.=.=.=.=.=.=.=.=.G.H.> > > > > > > > > > > > > > > > > _.. .   ",
"  . . ' > > > > > > > > > > > > > > > > v w > I > W a > <.> > > > > > > > > > > > > > > > > > > > > > > > > > > > > > > /.. .   ",
"  . . * > > > > > > > > > > > > > > > > v w > I > W a > <.> > > > > > > > > > > > > > > > > > > > > > > > > > > > > > > b.. .   ",
"    . & > > > > > > > > > > > > > > > > v w > I > W a > I.J.J.J.J.J.J.K.L.T M.<.N.J.J.O.> > > > > > > > > > > > > > > > P..     ",
"    . + Q.> > > > > > > > > > > > > > > v w > I > W a > R.S.S.S.S.S.S.N.T.4.U.V.W.S.S.C.> > > > > > > > > > > > > > > z % .     ",
"    . . X.> > > > > > > > > > > > > > > v w > I > W Y.Z.Z.Z.Z.Z.Z.Z.Z.Z.Z.Z.Z.Z.Z.`.>  +> > > > > > > > > > > > > > > .+. .     ",
"    . . / > > > > > > > > > > > > > > > v w > I > ++u @+@+@+@+@+@+@+@+@+@+@+@+@+#+$+>  +> > > > > > > > > > > > > > > X . .     ",
"      . . < > > > > > > > > > > > > > > v w > $+(.> > -.> > > > > > > > > > > > m.u >  +> > > > > > > > > > > > > > < . .       ",
"      . . [ > > > > > > > > > > > > > > v w %+&+p > ; %._ *+*+*+*+*+*+*+*+*+*+*+n.%.>  +> > > > > > > > > > > > > > 0 . .       ",
"        . } >.> > > > > > > > > > > > > v w ; =+-+> > ;+>+,+,+,+,+,+,+,+,+,+,+,+H '+>  +> > > > > > > > > > > > > )+} .         ",
"        . . 3 > > > > > > > > > > > > > v !+~+~+~+~+i.{+]+> > -.^+/+d d d d d d d d d (+> > > > > > > > > > > > > u . .         ",
"          . . 6 > > > > > > > > > > > > _+:+<+<+<+<+[+}+|+> > D E V.^+^+^+^+^+^+^+^+^+1+> > > > > > > > > > > > i . .           ",
"          . . # 2+> > > > > > > > > > > > > > > > > > (.> > > > (.> > > > > > > > > > > > > > > > > > > > > > =.3+. .           ",
"            . . 4+> > > > > > > > > > > > > > > > > > > > > > > > > > > > > > > > > > > > > > > > > > > > > (.3 . .             ",
"              . . a > > > > > > > > > > > > > > > > > > > > > > > > > > > > > > > > > > > > > > > > > > > > 5+. .               ",
"              . . + = > > > > > > > > > > > > > > > > > > > > > > > > > > > > > > > > > > > > > > > > > > /.+ . .               ",
"                . . b g > > > > > > > > > > > > > > > > > > > > > > > > > > > > > > > > > > > > > > > > @.b . .                 ",
"                  . . 6+' > > > > > > > > > > > > > > > > > > > > > > > > > > > > > > > > > > > > > > d e . .                   ",
"                    . . } j > > > > > > > > > > > > > > > > > > > > > > > > > > > > > > > > > > > (.5++ . .                     ",
"                      . . . 3 =.> > > > > > > > > > > > > > > > > > > > > > > > > > > > > > > > 9 4+. . .                       ",
"                        . . . 7+p > > > > > > > > > > > > > > > > > > > > > > > > > > > > > > i k . .                           ",
"                            . . . 8+>.> > > > > > > > > > > > > > > > > > > > > > > > > > )+9+. . .                             ",
"                              . . . } R W > > > > > > > > > > > > > > > > > > > > > > < 0 + . . .                               ",
"                                  . . . . %.Y !.> > > > > > > > > > > > > > > > z .+X . . . .                                   ",
"                                      . . . . % $ ^./._.|.> > > > > > |._./.b.P.% . . . .                                       ",
"                                          . . . . . . . % @ k k.k.k @ . . . . . . . .                                           ",
"                                                  . . . . . . . . . . . . . .                                                   ",
"                                                                                                                                "};
