/* XPM */
static char * C:\Users\C00KIE\Desktop\Convert Wallet Graphics\Eclipse Convert\XPM\bitcoin32_xpm[] = {
"32 32 113 2",
"  	c None",
". 	c #9BAEB9",
"+ 	c #708D9B",
"@ 	c #5F7F90",
"# 	c #577A8A",
"$ 	c #335E70",
"% 	c #255367",
"& 	c #335F71",
"* 	c #608190",
"= 	c #638392",
"- 	c #2D596D",
"; 	c #2D596C",
"> 	c #648393",
", 	c #3D6578",
"' 	c #3E6678",
") 	c #315D6F",
"! 	c #315C70",
"~ 	c #325D70",
"{ 	c #305C6F",
"] 	c #3E6779",
"^ 	c #638292",
"/ 	c #8EA6B0",
"( 	c #7E99A5",
"_ 	c #A0B4BD",
": 	c #658594",
"< 	c #75929F",
"[ 	c #5D7E8E",
"} 	c #2E5A6D",
"| 	c #638393",
"1 	c #517484",
"2 	c #587A8A",
"3 	c #839DA8",
"4 	c #40697A",
"5 	c #56798A",
"6 	c #3A6375",
"7 	c #41697A",
"8 	c #335D71",
"9 	c #5A7C8B",
"0 	c #507485",
"a 	c #5F8090",
"b 	c #648593",
"c 	c #3B6576",
"d 	c #9AADB8",
"e 	c #315D70",
"f 	c #42697C",
"g 	c #6B8A98",
"h 	c #638493",
"i 	c #6A8998",
"j 	c #9CB0BA",
"k 	c #29566A",
"l 	c #355F72",
"m 	c #2F5A6E",
"n 	c #3D6678",
"o 	c #88A1AC",
"p 	c #456C7D",
"q 	c #4B7181",
"r 	c #7794A0",
"s 	c #265468",
"t 	c #7894A1",
"u 	c #698997",
"v 	c #74919E",
"w 	c #75919F",
"x 	c #74929E",
"y 	c #7F9BA6",
"z 	c #587A8B",
"A 	c #95ABB5",
"B 	c #2A576B",
"C 	c #557889",
"D 	c #4E7384",
"E 	c #4D7383",
"F 	c #658693",
"G 	c #587B8B",
"H 	c #4A7081",
"I 	c #618190",
"J 	c #547888",
"K 	c #688896",
"L 	c #8AA3AE",
"M 	c #2F5B6E",
"N 	c #718F9C",
"O 	c #7996A2",
"P 	c #567989",
"Q 	c #75929E",
"R 	c #77939F",
"S 	c #325E70",
"T 	c #87A0AB",
"U 	c #557988",
"V 	c #608290",
"W 	c #577B8A",
"X 	c #5E808F",
"Y 	c #4A7080",
"Z 	c #4C7283",
"` 	c #567A8A",
" .	c #4D7384",
"..	c #7B97A3",
"+.	c #356072",
"@.	c #60808F",
"#.	c #587B8A",
"$.	c #285669",
"%.	c #4F7485",
"&.	c #4D7183",
"*.	c #658493",
"=.	c #658694",
"-.	c #608090",
";.	c #527586",
">.	c #5A7B8B",
",.	c #648493",
"'.	c #819BA7",
").	c #91A8B2",
"!.	c #678594",
"~.	c #3F6779",
"{.	c #668594",
"].	c #345F72",
"^.	c #718E9C",
"                                                                ",
"                      .   + @ # # @ +   .                       ",
"                    @ $ % % % % % % % % & *                     ",
"                = - % % % % % % % % % % % % ; >                 ",
"              , % % % % % % % % % % % % % % % % '               ",
"            ) % % % % % % % % % % % % % % % % % % !             ",
"          ~ % % % % % % % % % % % % % % % % % % % % {           ",
"        , % % % % % % % % % % % % % % % % % % % % % % ]         ",
"      ^ % % % % % % / ( ( ( ( ( ( ( ( ( ( _ % % % % % % :       ",
"      - % % % % % % < [ } - | 1 1 1 1 1 2 3 4 % % % % % ;       ",
"    @ % % % % % % % < 5 6 7 % % 8 9 0 0 a b c % % % % % % *     ",
"  d $ % % % % % % % < 5 e f g h : i h h h j k % % % % % % l .   ",
"    % % % % % % % % < 5 m n o p p p p p p q % % % % % % % %     ",
"  + % % % % % % % % < 5 m n r s s s s s s % % % % % % % % % +   ",
"  @ % % % % % % % % t 5 m n u v w v v x y h % % % % % % % % *   ",
"  z % % % % % % % % A 5 B 2 0 C 2 % % D E F % % % % % % % % G   ",
"  z % % % % % % % % H 5 B # 0 0 0 0 0 I J K % % % % % % % % G   ",
"  @ % % % % % % % % L 5 M ] x N N N N N O P % % % % % % % % *   ",
"  + % % % % % % % % Q 5 M ] R k k k k k S 6 % % % % % % % % +   ",
"    % % % % % % % % Q 5 M ] T U U V q V W X % % % % % % % %     ",
"  . & % % % % % % % Q 5 M p Y Z Z `  .X D ..% % % % % % % +..   ",
"    @.% % % % % % % Q #.$.%.&.&.&.&.&.&.*.=.% % % % % % % -.    ",
"      ; % % % % % % Q ;.M &.C 0 0 0 0 0 >.=.% % % % % % -       ",
"      ,.% % % % % % '.< < ).q k _ < < < < ).% % % % % % !.      ",
"        n % % % % % % % % % % % % % % % % % % % % % % ~.        ",
"          ~ % % % % % % % % % % % % % % % % % % % % {           ",
"            ! % % % % % % % % % % % % % % % % % % ~             ",
"              ' % % % % % % % % % % % % % % % % ~.              ",
"                : ; % % % % % % % % % % % % - {.                ",
"                    * ].% % % % % % % % +.-.                    ",
"                      .   + @.z z @.^.  .                       ",
"                                                                "};
